<svg xmlns="http://www.w3.org/2000/svg" width="109" height="110" viewBox="0 0 109 110">
  <g fill="none" fill-rule="evenodd" transform="translate(-15 -20)">
    <path fill="#ED0C06" d="M95.475,112.0587 C101.964,112.0587 106.095,115.7007 106.095,120.6717 C106.095,125.5497 101.964,129.4707 95.454,129.4707 C88.917,129.4707 84.81,125.5257 84.81,120.6717 C84.81,115.7007 88.917,112.0587 95.475,112.0587 Z M113.985,112.5957 L113.985,124.1727 L123.159,124.1727 L123.159,128.9337 L108.15,128.9337 L108.15,112.5957 L113.985,112.5957 Z M77.037,112.5717 C81.354,112.5717 83.526,114.9987 83.526,118.5957 C83.526,121.99395 81.2336667,124.47196 76.7282122,124.672562 L76.128,124.6857 L71.577,124.6857 L71.577,128.9337 L65.742,128.9337 L65.742,112.5717 L77.037,112.5717 Z M47.769,112.5957 L50.265,121.5807 L52.857,112.5957 L61.539,112.5957 L63.126,128.9337 L57.222,128.9337 L56.265,117.6846 L52.95,128.9337 L47.091,128.9337 L43.986,117.7527 L43.17,128.9337 L37.407,128.9337 L38.994,112.5957 L47.769,112.5957 Z M34.791,112.5957 L34.791,128.9337 L29.049,128.9337 L29.049,126.2727 L23.331,126.2727 L21.699,128.9337 L15,128.9337 L26.04,112.5957 L34.791,112.5957 Z M95.454,116.7957 C92.769,116.7957 91.065,118.3857 91.065,120.7167 C91.065,123.0747 92.769,124.7337 95.454,124.7337 C98.115,124.7337 99.816,123.0747 99.816,120.7167 C99.816,118.3857 98.115,116.7957 95.454,116.7957 Z M29.049,116.9847 L25.479,122.7717 L29.049,122.7717 L29.049,116.9847 Z M74.937,116.6097 L71.577,116.6097 L71.577,120.9747 L74.61,120.9747 C76.524,120.9747 77.55,120.1347 77.55,118.7577 C77.55,117.528162 76.7550178,116.738292 75.3113473,116.624049 L74.937,116.6097 Z M107.2233,20.9226 L56.0403,96.6606 L36.8073,96.6606 L87.9903,20.9226 L107.2233,20.9226 Z"/>
    <polygon fill="#18249C" points="107.222 96.661 123.158 96.661 123.158 20.923 107.222 20.923"/>
  </g>
</svg>
